<?xml version="1.0" encoding="utf-8"?>
<!-- Generator: Adobe Illustrator 16.0.0, SVG Export Plug-In . SVG Version: 6.00 Build 0)  -->
<!DOCTYPE svg PUBLIC "-//W3C//DTD SVG 1.1//EN" "http://www.w3.org/Graphics/SVG/1.1/DTD/svg11.dtd">
<svg version="1.1" id="Capa_1" xmlns="http://www.w3.org/2000/svg" xmlns:xlink="http://www.w3.org/1999/xlink" x="0px" y="0px"
	 width="600px" height="600px" viewBox="0 0 600 600" enable-background="new 0 0 600 600" xml:space="preserve">
<g>
	<g>
		<g>
			<path fill="#FFFFFF" d="M142.316,521.593c2.029,0,3.541-1.271,4.367-2.75l3.438,2.166c-1.479,2.646-4.057,4.436-7.977,4.436
				c-6.771,0-10.141-4.469-10.141-11.965c0-7.527,3.369-11.963,10.141-11.963c3.92,0,6.498,1.787,7.977,4.436l-3.438,2.166
				c-0.826-1.479-2.338-2.752-4.367-2.752c-3.885,0-5.637,3.025-5.637,8.148C136.68,518.567,138.432,521.593,142.316,521.593z"/>
			<path fill="#FFFFFF" d="M170.951,519.841h-8.422l-1.686,5.26h-4.812l8.113-23.24h5.191l8.148,23.24h-4.848L170.951,519.841z
				 M163.664,516.128h6.188l-3.094-9.627L163.664,516.128z"/>
			<path fill="#FFFFFF" d="M189.408,516.608v8.492h-4.537v-23.24h8.148c5.432,0,8.354,2.646,8.354,7.391
				c0,4.711-2.922,7.357-8.354,7.357H189.408z M189.408,512.931h3.268c2.99,0,4.021-1.443,4.021-3.68
				c0-2.199-1.031-3.678-4.021-3.678h-3.268V512.931z"/>
			<path fill="#FFFFFF" d="M220.656,519.841h-8.422l-1.686,5.26h-4.812l8.113-23.24h5.191l8.148,23.24h-4.848L220.656,519.841z
				 M213.369,516.128h6.188l-3.094-9.627L213.369,516.128z"/>
			<path fill="#FFFFFF" d="M243.48,521.593c2.029,0,3.541-1.271,4.367-2.75l3.438,2.166c-1.479,2.646-4.057,4.436-7.977,4.436
				c-6.771,0-10.141-4.469-10.141-11.965c0-7.527,3.369-11.963,10.141-11.963c3.92,0,6.498,1.787,7.977,4.436l-3.438,2.166
				c-0.826-1.479-2.338-2.752-4.367-2.752c-3.885,0-5.637,3.025-5.637,8.148C237.844,518.567,239.596,521.593,243.48,521.593z"/>
			<path fill="#FFFFFF" d="M259.533,501.86h4.537v23.24h-4.537V501.86z"/>
			<path fill="#FFFFFF" d="M289.406,501.86v3.713h-6.223v19.527h-4.539v-19.527h-6.188v-3.713H289.406z"/>
			<path fill="#FFFFFF" d="M308.209,519.841h-8.424l-1.684,5.26h-4.812l8.113-23.24h5.189l8.148,23.24h-4.848L308.209,519.841z
				 M300.92,516.128h6.188l-3.094-9.627L300.92,516.128z"/>
			<path fill="#FFFFFF" d="M331.033,521.593c2.027,0,3.541-1.271,4.365-2.75l3.438,2.166c-1.479,2.646-4.057,4.436-7.975,4.436
				c-6.773,0-10.143-4.469-10.143-11.965c0-7.527,3.369-11.963,10.143-11.963c3.918,0,6.496,1.787,7.975,4.436l-3.438,2.166
				c-0.824-1.479-2.338-2.752-4.365-2.752c-3.885,0-5.639,3.025-5.639,8.148C325.395,518.567,327.148,521.593,331.033,521.593z"/>
			<path fill="#FFFFFF" d="M347.084,501.86h4.537v23.24h-4.537V501.86z"/>
			<path fill="#FFFFFF" d="M370.357,525.444c-7.254,0-9.902-5.123-9.902-11.93c0-6.842,2.613-11.998,9.936-11.998
				c7.289,0,9.9,5.191,9.9,11.998S377.541,525.444,370.357,525.444z M370.357,521.593c4.125,0,5.26-3.299,5.26-8.078
				c0-4.812-1.135-8.148-5.227-8.148c-4.057,0-5.26,3.336-5.26,8.148C365.131,518.294,366.162,521.593,370.357,521.593z"/>
			<path fill="#FFFFFF" d="M403.357,501.86h4.502v23.24h-4.641l-9.557-16.055l0.035,16.055h-4.607l0.035-23.24h4.812l9.42,15.814
				V501.86z"/>
			<path fill="#FFFFFF" d="M432.746,521.388v3.713h-15.127v-23.24h15.023v3.713h-10.486v5.982h9.043v3.713h-9.043v6.119H432.746z"/>
			<path fill="#FFFFFF" d="M453.371,507.464c-0.859-1.271-2.305-2.098-4.436-2.098s-3.301,1.238-3.301,2.924
				c0,1.375,0.688,2.234,2.406,2.783l2.957,0.895c4.16,1.307,5.672,3.438,5.672,6.395c0,4.504-3.506,7.115-8.354,7.115
				c-5.121,0-7.357-2.439-8.318-4.262l3.094-2.545c0.859,1.617,2.062,2.957,5.225,2.957c2.373,0,3.68-1.168,3.68-2.922
				c0-1.443-0.861-2.27-2.613-2.818l-2.922-0.895c-4.057-1.271-5.502-3.541-5.502-6.43c0-3.609,2.27-7.047,7.977-7.047
				c4.021,0,6.291,1.65,7.529,3.438L453.371,507.464z"/>
		</g>
	</g>
	<g>
		<g>
			<g>
				<path fill="#FFFFFF" d="M211.406,193.579l-21.354,48.604h-12.568l27.596-61.521h12.656l27.596,61.521h-12.656L211.406,193.579z"
					/>
				<path fill="#FFFFFF" d="M247.941,243.872h-16.37l-20.168-46.086l-20.247,46.086h-16.281l29.111-64.9h14.844L247.941,243.872z
					 M233.78,240.493h8.942l-26.08-58.143h-10.469l-26.08,58.143h8.855l22.46-51.121L233.78,240.493z"/>
			</g>
			<g>
				<path fill="#FFFFFF" d="M289.42,180.661v50.799h31.639v10.723h-43.24v-61.521H289.42z"/>
				<path fill="#FFFFFF" d="M322.748,243.872h-46.619v-64.9h14.98v50.799h31.639V243.872z M279.508,240.493h39.861v-7.344H287.73
					v-50.799h-8.223V240.493z"/>
			</g>
			<g>
				<path fill="#FFFFFF" d="M362.34,191.206h-19.51v-10.545c17.752,0,32.783,0,50.623,0v10.545h-19.512v50.977H362.34V191.206z"/>
				<path fill="#FFFFFF" d="M375.631,243.872h-14.98v-50.977h-19.51v-13.924h54.002v13.924h-19.512V243.872z M364.029,240.493h8.223
					v-50.977h19.512v-7.166H344.52v7.166h19.51V240.493z"/>
			</g>
		</g>
		<path fill="#FFFFFF" d="M416.465,458.21H104.443V67.097h391.113v309.271L416.465,458.21z M114.58,448.073h297.584l73.256-75.803
			V77.233H114.58V448.073z"/>
		<g>
			<g>
				<path fill="#FFFFFF" d="M190.053,335.106h-12.568l27.596-61.52h12.656l27.596,61.52h-12.656l-21.27-48.602L190.053,335.106z"/>
				<path fill="#FFFFFF" d="M247.941,336.796h-16.37l-20.168-46.084l-20.247,46.084h-16.281l29.111-64.898h14.844L247.941,336.796z
					 M233.78,333.417h8.942l-26.08-58.141h-10.469l-26.08,58.141h8.855l22.46-51.119L233.78,333.417z"/>
			</g>
			<g>
				<path fill="#FFFFFF" d="M290.117,335.106v-61.52h11.514v61.52H290.117z"/>
				<path fill="#FFFFFF" d="M303.32,336.796h-14.893v-64.898h14.893V336.796z M291.807,333.417h8.135v-58.141h-8.135V333.417z"/>
			</g>
			<g>
				<path fill="#FFFFFF" d="M407.512,335.106h-13.797l-17.928-20.566h-11.162v20.566h-11.602v-61.609
					c9.754,0,19.512,0.09,29.266,0.09c14.502,0.088,22.148,9.756,22.148,20.391c0,8.436-3.867,16.961-15.557,19.336l18.631,21.002
					V335.106z M364.625,284.397v19.686h17.664c7.383,0,10.547-4.922,10.547-9.844c0-4.924-3.252-9.842-10.547-9.842H364.625z"/>
				<path fill="#FFFFFF" d="M409.201,336.796h-16.255l-17.928-20.566h-8.704v20.566h-14.98v-64.988h1.689
					c4.88,0,9.76,0.022,14.641,0.045c4.875,0.022,9.751,0.045,14.625,0.045c11.486,0.069,23.838,7.009,23.838,22.08
					c0,10.164-5.114,17.419-14.15,20.28l17.225,19.416V336.796z M394.483,333.417h9.973l-18.785-21.176l2.874-0.583
					c12.357-2.512,14.203-12.155,14.203-17.681c0-9.247-6.329-18.615-20.469-18.701c-4.87,0-9.75-0.022-14.631-0.045
					c-4.312-0.02-8.624-0.04-12.936-0.044v58.229h8.223v-20.566h13.62L394.483,333.417z M382.289,305.772h-19.354v-23.064h19.354
					c5.894,0,12.236,3.608,12.236,11.531C394.525,299.98,390.742,305.772,382.289,305.772z M366.314,302.394h15.975
					c6.53,0,8.857-4.212,8.857-8.154c0-3.761-2.319-8.152-8.857-8.152h-15.975V302.394z"/>
			</g>
		</g>
		<polygon fill="#FFFFFF" points="419.383,453.142 409.246,453.142 409.246,367.651 494.732,367.651 494.732,377.788 
			419.383,377.788 		"/>
	</g>
</g>
</svg>
