<?xml version="1.0" encoding="utf-8"?>
<!-- Generator: Adobe Illustrator 16.0.0, SVG Export Plug-In . SVG Version: 6.00 Build 0)  -->
<!DOCTYPE svg PUBLIC "-//W3C//DTD SVG 1.1//EN" "http://www.w3.org/Graphics/SVG/1.1/DTD/svg11.dtd">
<svg version="1.1" id="Capa_1" xmlns="http://www.w3.org/2000/svg" xmlns:xlink="http://www.w3.org/1999/xlink" x="0px" y="0px"
	 width="600px" height="600px" viewBox="0 0 600 600" enable-background="new 0 0 600 600" xml:space="preserve">
<g>
	<g>
		
			<text transform="matrix(1 0 0 1 113.9243 525.1006)" fill="#333333" font-family="'BrixSansBold'" font-size="34.3745" letter-spacing="5"> CAPACITACIONES</text>
	</g>
	<g>
		<polyline fill="#A3A3A3" points="414.314,453.142 414.314,372.72 494.732,372.72 		"/>
		<g>
			<path fill="#A3A3A3" stroke="#A3A3A3" stroke-width="3.3791" stroke-miterlimit="10" d="M211.406,193.579l-21.354,48.604h-12.568
				l27.596-61.521h12.656l27.596,61.521h-12.656L211.406,193.579z"/>
			<path fill="#333333" stroke="#333333" stroke-width="3.3791" stroke-miterlimit="10" d="M289.419,180.661v50.799h31.639v10.723
				h-43.24v-61.521H289.419z"/>
			<path fill="#333333" stroke="#333333" stroke-width="3.3791" stroke-miterlimit="10" d="M362.339,191.206h-19.51v-10.545
				c17.752,0,32.783,0,50.623,0v10.545h-19.512v50.977h-11.602V191.206z"/>
		</g>
		<polygon fill="none" stroke="#333333" stroke-width="10.1374" stroke-miterlimit="10" points="414.314,453.142 109.512,453.142 
			109.512,72.165 490.488,72.165 490.488,374.319 		"/>
		<g>
			<path fill="#333333" stroke="#333333" stroke-width="3.3791" stroke-miterlimit="10" d="M190.052,335.106h-12.568l27.596-61.52
				h12.656l27.596,61.52h-12.656l-21.27-48.602L190.052,335.106z"/>
			<path fill="#333333" stroke="#333333" stroke-width="3.3791" stroke-miterlimit="10" d="M290.117,335.106v-61.52h11.514v61.52
				H290.117z"/>
			<path fill="#333333" stroke="#333333" stroke-width="3.3791" stroke-miterlimit="10" d="M407.511,335.106h-13.797l-17.928-20.566
				h-11.162v20.566h-11.602v-61.609c9.754,0,19.512,0.09,29.266,0.09c14.502,0.088,22.148,9.756,22.148,20.391
				c0,8.436-3.867,16.961-15.557,19.336l18.631,21.002V335.106z M364.625,284.397v19.686h17.664c7.383,0,10.547-4.922,10.547-9.844
				c0-4.924-3.252-9.842-10.547-9.842H364.625z"/>
		</g>
		<polyline fill="none" stroke="#333333" stroke-width="10.1374" stroke-miterlimit="10" points="414.314,453.142 414.314,372.72 
			494.732,372.72 		"/>
	</g>
</g>
</svg>
