<?xml version="1.0" encoding="utf-8"?>
<!-- Generator: Adobe Illustrator 16.0.0, SVG Export Plug-In . SVG Version: 6.00 Build 0)  -->
<!DOCTYPE svg PUBLIC "-//W3C//DTD SVG 1.1//EN" "http://www.w3.org/Graphics/SVG/1.1/DTD/svg11.dtd">
<svg version="1.1" id="Capa_1" xmlns="http://www.w3.org/2000/svg" xmlns:xlink="http://www.w3.org/1999/xlink" x="0px" y="0px"
	 width="600px" height="600px" viewBox="0 0 600 600" enable-background="new 0 0 600 600" xml:space="preserve">
<g>
	<g>
		
			<text transform="matrix(1 0 0 1 113.9238 525.1006)" fill="#5C5B5F" font-family="'BrixSansBold'" font-size="34.3745" letter-spacing="5"> CAPACITACIONES</text>
	</g>
	<g>
		<polyline fill="#00ADD8" points="414.311,453.142 414.311,372.72 494.73,372.72 		"/>
		<g>
			<path fill="#00ADD8" stroke="#00ADD8" stroke-width="3.3791" stroke-miterlimit="10" d="M211.404,193.579l-21.355,48.604h-12.566
				l27.595-61.521h12.657l27.594,61.521h-12.653L211.404,193.579z"/>
			<path fill="#5C5B5F" stroke="#5C5B5F" stroke-width="3.3791" stroke-miterlimit="10" d="M289.417,180.661v50.799h31.639v10.723
				h-43.24v-61.521H289.417z"/>
			<path fill="#5C5B5F" stroke="#5C5B5F" stroke-width="3.3791" stroke-miterlimit="10" d="M362.338,191.206h-19.51v-10.545
				c17.752,0,32.781,0,50.622,0v10.545h-19.511v50.977h-11.602V191.206z"/>
		</g>
		<polygon fill="none" stroke="#5C5B5F" stroke-width="10.1374" stroke-miterlimit="10" points="414.311,453.142 109.513,453.142 
			109.513,72.165 490.487,72.165 490.487,374.319 		"/>
		<g>
			<path fill="#5C5B5F" stroke="#5C5B5F" stroke-width="3.3791" stroke-miterlimit="10" d="M190.049,335.106h-12.566l27.595-61.52
				h12.657l27.594,61.52h-12.653l-21.271-48.602L190.049,335.106z"/>
			<path fill="#5C5B5F" stroke="#5C5B5F" stroke-width="3.3791" stroke-miterlimit="10" d="M290.114,335.106v-61.52h11.515v61.52
				H290.114z"/>
			<path fill="#5C5B5F" stroke="#5C5B5F" stroke-width="3.3791" stroke-miterlimit="10" d="M407.51,335.106h-13.799l-17.927-20.566
				h-11.162v20.566H353.02v-61.609c9.756,0,19.513,0.09,29.269,0.09c14.501,0.088,22.146,9.756,22.146,20.391
				c0,8.436-3.867,16.961-15.555,19.336l18.631,21.002V335.106z M364.622,284.397v19.686h17.666c7.382,0,10.544-4.922,10.544-9.844
				c0-4.924-3.25-9.842-10.544-9.842H364.622z"/>
		</g>
		<polyline fill="none" stroke="#5C5B5F" stroke-width="10.1374" stroke-miterlimit="10" points="414.311,453.142 414.311,372.72 
			494.73,372.72 		"/>
	</g>
</g>
</svg>
